<svg width="245" height="56" viewBox="0 0 245 56" fill="none" xmlns="http://www.w3.org/2000/svg">
<g id="Group">
<g id="Layer 1">
<g id="Group_2">
<g id="Group_3">
<path id="Vector" d="M45.1756 12.7763L43.6627 15.294L43.9443 15.5646L46.5117 14.2284C46.7657 14.0904 46.9424 13.8419 46.9755 13.5548L47.1467 12.2131L45.932 12.2739C45.6118 12.2904 45.3191 12.4837 45.1756 12.7763Z" fill="white"/>
<path id="Vector_2" d="M45.2638 10.3305C45.5399 10.0434 45.6117 9.62374 45.446 9.26486L45.1313 8.31519L43.9773 8.90597C43.6737 9.044 43.4694 9.32559 43.4252 9.65135L42.7958 12.5335L43.2044 12.7323L45.2583 10.3305H45.2638Z" fill="white"/>
<path id="Vector_3" d="M57.1624 24.7247L55.5722 23.7253C55.1747 23.4768 54.6943 23.4106 54.2471 23.5486L51.9889 24.2498V24.6694L54.8489 25.6522C55.3735 25.8344 55.9698 25.724 56.3949 25.3651L57.1569 24.7247H57.1624Z" fill="white"/>
<path id="Vector_4" d="M38.2848 20.0149C38.1137 20.2082 38.0309 20.4677 38.0529 20.7217L38.1965 22.621L38.6051 22.6486L39.8143 21.1026C40.0517 20.799 40.0848 20.3904 39.9026 20.0536L39.4443 18.8831L38.2904 20.0149H38.2848Z" fill="white"/>
<path id="Vector_5" d="M37.4512 15.0733C37.3187 15.3052 37.2966 15.5757 37.396 15.8242L38.2352 18.1266L38.6383 18.1155L39.4113 15.8739C39.5051 15.5978 39.4665 15.399 39.2401 15.0291L38.3843 13.7261L37.4512 15.0678V15.0733Z" fill="white"/>
<path id="Vector_6" d="M37.8211 11.0427C38.1193 10.8936 38.2794 10.4188 38.3401 10.1096L38.6438 8.53052L37.3021 8.60782C36.9543 8.6299 36.634 8.80658 36.4408 9.07713L34.9335 11.6832L35.3034 12.1304L37.8267 11.0372L37.8211 11.0427Z" fill="white"/>
<path id="Vector_7" d="M48.8803 10.3967C49.2263 10.2569 49.4619 10.0029 49.587 9.63479L50.0784 8.32623L48.4662 8.31519C48.1459 8.31519 47.8423 8.46978 47.6656 8.73481L46.219 10.9433L46.5668 11.3077L48.8858 10.3967H48.8803Z" fill="white"/>
<path id="Vector_8" d="M55.7931 12.5168C55.4231 12.5445 55.0974 12.7819 54.9649 13.1297L53.6949 15.653L54.0262 15.9622L56.693 14.51C57.0298 14.3555 57.2507 14.0186 57.2562 13.6487L57.1127 12.5168H55.7875H55.7931Z" fill="white"/>
<path id="Vector_9" d="M57.4053 18.2591L57.7642 16.8567L56.2845 16.3929C55.9974 16.3045 55.6882 16.3708 55.4508 16.5696L52.9717 18.7063L53.1208 19.1259L56.5661 18.9658C56.9581 18.9493 57.3059 18.6566 57.4053 18.2536V18.2591Z" fill="white"/>
<path id="Vector_10" d="M49.3662 12.6991L53.1815 10.3305C53.452 10.1317 53.6011 9.81147 53.5735 9.47467L53.4796 8.31519L51.779 8.76241C51.4919 8.83971 51.3042 9.05504 51.133 9.32559L49.0294 12.4341L49.3662 12.6991Z" fill="white"/>
<path id="Vector_11" d="M42.1057 10.9653C42.2879 10.7003 42.321 10.369 42.2051 10.0709L41.3051 8.30957L39.991 9.25372C39.7922 9.40279 39.7481 9.89419 39.726 10.1868V10.2531L39.4554 13.3892L40.0241 13.5935L42.1057 10.9709V10.9653Z" fill="white"/>
<path id="Vector_12" d="M22.665 12.1746L21.235 11.4568L21.1688 13.0911C21.1412 13.4389 21.2681 13.8089 21.6933 14.2175L23.3276 15.8794L23.7472 15.6033L23.1344 12.7985C23.0626 12.5169 22.9908 12.3126 22.665 12.169V12.1746Z" fill="white"/>
<path id="Vector_13" d="M36.7057 13.9965L36.5567 12.7156L34.9941 13.3395C34.569 13.461 34.4862 13.9524 34.2598 14.4382L33.3708 16.3541L33.7573 16.6192L36.2033 15.4707C36.6284 15.1891 36.8051 14.9738 36.7057 13.9965Z" fill="white"/>
<path id="Vector_14" d="M29.4397 14.7586L29.8207 14.6923L29.9587 13.058C30.0084 12.666 29.8041 12.2795 29.4508 12.0918L28.6005 11.6445L28.2471 12.5832C28.1809 12.8206 28.2085 13.069 28.3244 13.2899L29.4452 14.7641L29.4397 14.7586Z" fill="white"/>
<path id="Vector_15" d="M21.489 10.1759L23.9736 11.6998L24.349 11.4016L23.6313 9.2759C23.5208 8.95014 23.2392 8.7072 22.9024 8.64094L21.2295 8.31519L21.0528 9.15995C20.97 9.55749 21.1467 9.96606 21.4945 10.1759H21.489Z" fill="white"/>
<path id="Vector_16" d="M24.995 13.7924L26.7508 15.4101L27.06 15.1065L26.5852 12.8979C26.5245 12.6053 26.3091 12.3679 26.0165 12.274L24.8681 11.9207L24.6582 12.9697C24.5975 13.2844 24.7245 13.6047 24.995 13.7869V13.7924Z" fill="white"/>
<path id="Vector_17" d="M30.4446 11.8654L30.8421 11.7715L31.1568 9.60166C31.1623 9.34215 31.0243 9.09369 30.7814 8.9391L29.7986 8.31519L29.0421 9.34768C28.8544 9.60166 28.8489 9.93846 29.0366 10.198L30.4501 11.8654H30.4446Z" fill="white"/>
<path id="Vector_18" d="M34.5691 10.3415C34.8286 10.2366 34.9887 10.0102 34.9997 9.74521L34.9169 8.31519L33.3433 8.40353C33.1059 8.45874 32.9182 8.61886 32.8409 8.83419L32.0127 11.109L32.4102 11.4513L34.5636 10.336L34.5691 10.3415Z" fill="white"/>
<path id="Vector_19" d="M32.7966 18.132C32.6752 18.2093 32.5537 18.3032 32.4709 18.3805L31.5267 19.2915L31.593 19.6228L33.1445 19.7001C33.4868 19.6891 33.7021 19.4572 33.8954 19.159L34.3426 18.1707L33.3267 18.0216C33.139 17.994 32.9512 18.0327 32.7911 18.132H32.7966Z" fill="white"/>
<path id="Vector_20" d="M30.8421 15.4984L32.9788 14.3831C33.3322 14.2229 33.531 13.8696 33.4813 13.4886L33.3156 12.158L31.8801 12.7101C31.6316 12.804 31.4439 12.9972 31.3666 13.2346L30.4777 15.2057L30.8365 15.5039L30.8421 15.4984Z" fill="white"/>
<path id="Vector_21" d="M25.2877 9.91628L27.2423 11.6941L27.6784 11.523L27.4521 9.30893C27.4134 8.95005 27.1208 8.65189 26.7122 8.56355L25.8288 8.30957L25.1165 8.95004C24.9288 9.27028 24.9951 9.65678 25.2822 9.91628H25.2877Z" fill="white"/>
<path id="Vector_22" d="M47.3619 14.6317L46.0203 17.1218L46.346 17.3813L48.7533 16.0673C49.0073 15.9016 49.1674 15.6311 49.184 15.344L49.2779 13.8918L48.0852 14.1127C47.776 14.1679 47.5055 14.3667 47.3675 14.6317H47.3619Z" fill="white"/>
<path id="Vector_23" d="M53.3084 13.4058L51.6631 13.7591C51.4146 13.7812 51.1717 13.9965 50.9343 14.4106L49.5374 16.829L49.841 17.1658L52.4029 16.0615C52.8446 15.8738 53.1207 15.41 53.1483 14.8303L53.3084 13.4113V13.4058Z" fill="white"/>
<path id="Vector_24" d="M48.3945 21.5056L51.3374 20.175C51.6521 20.0314 51.8674 19.7332 51.9005 19.3909L52.0054 18.3032L50.3601 18.3971C50.0564 18.4136 49.7748 18.5793 49.6037 18.8333L48.0908 21.1522L48.3945 21.5056Z" fill="white"/>
<path id="Vector_25" d="M54.3134 22.3173L55.3293 21.1578L53.5238 20.4125C53.187 20.2744 52.795 20.3241 52.5189 20.5395L50.1006 22.4222L50.2607 22.7977L53.6232 22.6431C53.8937 22.632 54.1422 22.5106 54.3134 22.3173Z" fill="white"/>
<path id="Vector_26" d="M48.3392 24.2333C48.157 24.3051 48.0024 24.4321 47.892 24.5977L46.6718 26.7786L46.9589 27.132L49.9128 25.967C50.3103 25.8069 50.5533 25.4149 50.5201 24.9897L50.4042 23.6094L48.3447 24.2278L48.3392 24.2333Z" fill="white"/>
<path id="Vector_27" d="M53.5514 12.1635L56.8421 10.6285C57.1678 10.4795 57.3721 10.1261 57.3721 9.72855L57.3611 8.30957L55.6936 8.49177C55.4893 8.55803 55.3071 8.70711 55.1967 8.92244L53.3195 11.8487L53.5624 12.1635H53.5514Z" fill="white"/>
<path id="Vector_28" d="M60.0832 11.3408C60.7015 11.0868 61.2647 10.8107 61.3199 10.2255C61.3641 9.78377 61.3917 8.5249 61.3972 8.30957L59.774 8.51938C59.3543 8.53042 58.9955 8.80097 58.8685 9.19851L57.7808 11.8211L58.1341 12.1469L60.0832 11.3463V11.3408Z" fill="white"/>
<path id="Vector_29" d="M55.1139 32.7305C54.8875 32.5151 54.5618 32.4213 54.2415 32.482L51.26 33.0562L51.2103 33.4814L54.3299 34.812C54.6336 34.9445 54.9814 34.9169 55.263 34.7402L56.4556 33.9893L55.1194 32.736L55.1139 32.7305Z" fill="white"/>
<path id="Vector_30" d="M42.9339 15.5039L42.9891 13.7812L41.559 14.223C41.2443 14.3168 41.0069 14.5598 40.9186 14.869L40.0848 17.8615L40.394 18.0769L42.5474 16.3708C42.8234 16.172 42.9338 16.0284 42.9394 15.4984L42.9339 15.5039Z" fill="white"/>
<path id="Vector_31" d="M43.9332 19.4739C44.2479 19.3028 44.4467 18.977 44.4412 18.6181L44.5406 17.4089L43.1271 17.5911C42.7296 17.6132 42.3928 17.8727 42.2658 18.2537L41.4707 20.3132L41.813 20.6003L43.9277 19.4684L43.9332 19.4739Z" fill="white"/>
<path id="Vector_32" d="M53.3305 31.6593C53.7281 31.7808 54.1587 31.6483 54.4072 31.328L55.252 30.2348L53.579 29.4618C53.3471 29.3569 53.0765 29.3403 52.8336 29.4287L50.3711 30.29V30.7372L53.3305 31.6593Z" fill="white"/>
<path id="Vector_33" d="M53.8385 37.9758L55.263 37.7825L54.8213 36.7169C54.6005 36.1813 54.1312 35.7948 53.5625 35.6789L50.603 35.0715L50.3877 35.4746L52.3699 37.4788C52.7508 37.8653 53.303 38.0531 53.8385 37.9813V37.9758Z" fill="white"/>
<path id="Vector_34" d="M53.4409 41.6309L55.4397 41.4432L55.2851 40.1733C55.2354 39.7702 54.9317 39.4445 54.5287 39.3617L50.8017 38.5776L50.5643 38.9697L52.6183 41.3052C52.8226 41.5371 53.1262 41.6585 53.4409 41.6309Z" fill="white"/>
<path id="Vector_35" d="M44.0712 20.9646L44.2424 21.2572L46.8043 20.81C47.1466 20.7493 47.4337 20.5063 47.5496 20.1861L48.2288 18.3364L46.7601 18.2978C46.4564 18.2923 46.1693 18.4193 45.9761 18.6567L44.0657 20.9646H44.0712Z" fill="white"/>
<path id="Vector_36" d="M52.7729 28.1755L53.7557 26.5798L51.8674 26.3313C51.6134 26.2982 51.3539 26.3589 51.1496 26.5025L48.665 27.9325L48.781 28.3411L51.8343 28.6282C52.2097 28.6613 52.5797 28.4847 52.7729 28.1755Z" fill="white"/>
<path id="Vector_37" d="M46.313 24.1062C46.6719 24.1394 46.8651 23.9903 47.2129 23.6645L48.2123 22.5879L46.5228 22.0302C45.8768 21.8535 45.6062 21.9419 45.2805 22.1738L43.5413 23.4161L43.6627 23.8633L46.3185 24.1062H46.313Z" fill="white"/>
<path id="Vector_38" d="M48.538 34.4643C48.8914 34.5361 49.2613 34.4146 49.4711 34.144L50.2717 33.1392L49.2116 32.6257C48.9797 32.5153 48.7092 32.4932 48.4662 32.576L46.1141 33.4373L46.1473 33.8293L48.538 34.4643Z" fill="white"/>
<path id="Vector_39" d="M44.2313 28.319L43.7013 30.5551L44.016 30.8257L45.6945 29.2852C46.0699 28.8325 46.2577 28.7055 46.219 28.2969L46.1086 27.165C46.1086 27.165 45.2141 27.4687 44.9105 27.5957C44.5847 27.7337 44.3694 27.7834 44.2313 28.3135V28.319Z" fill="white"/>
<path id="Vector_40" d="M48.1404 31.3447C48.5821 31.2398 48.8748 30.8257 48.8251 30.3784L48.7091 29.3459L47.246 29.5447C47.0527 29.5723 46.865 29.6607 46.727 29.7987L44.8055 31.9134L45.0264 32.2943L48.1404 31.3447Z" fill="white"/>
<path id="Vector_41" d="M59.0893 21.7043L56.4667 22.7037V23.1564L59.3709 24.2607C59.7463 24.4043 60.177 24.2938 60.442 23.9902L61.4028 22.8859L60.0169 21.8368C59.7519 21.6326 59.404 21.5829 59.0893 21.7043Z" fill="white"/>
<path id="Vector_42" d="M43.0222 33.5478L41.7799 34.7349L41.9732 35.1821L43.867 35.0772C44.2866 35.0551 44.7393 34.7735 44.8719 34.376L45.2749 33.3656L43.6903 33.2717C43.4418 33.2828 43.1989 33.3822 43.0222 33.5533V33.5478Z" fill="white"/>
<path id="Vector_43" d="M48.4772 37.4569L49.9514 36.8827L49.0515 35.8833C48.8472 35.6569 48.5214 35.5244 48.1846 35.53L45.5399 35.5852L45.4019 35.9551L47.3951 37.3299C47.7042 37.5397 48.1294 37.5894 48.4772 37.4569Z" fill="white"/>
<path id="Vector_44" d="M43.1823 36.1152L40.9461 36.082L40.786 36.3691L42.5087 37.617C42.7737 37.8268 43.1381 37.9151 43.4859 37.8489L44.8663 37.6004L44.1043 36.5624C43.9 36.2863 43.5577 36.1207 43.1823 36.1096V36.1152Z" fill="white"/>
<path id="Vector_45" d="M8.84507 45.5235C8.68496 45.6395 8.56349 45.7996 8.49171 45.9873L7.93958 47.4946L10.7058 46.8321C11.037 46.7548 11.3076 46.5119 11.418 46.1861L12.3235 43.569L11.799 43.3757L8.84507 45.5235Z" fill="white"/>
<path id="Vector_46" d="M49.4712 39.6598C49.3718 39.3285 49.0957 39.0801 48.7589 39.0028L45.7001 38.3181L45.4572 38.7101L47.478 41.2168C47.7099 41.5039 48.0743 41.6309 48.4332 41.5536L49.9515 41.2223L49.4712 39.6598Z" fill="white"/>
<path id="Vector_47" d="M43.0554 31.8748V31.0907L42.0174 31.1791C41.5812 31.2288 41.3051 31.3171 41.2002 31.9079L40.7916 33.8569L39.599 35.1544L34.8783 35.1323C34.3813 35.1323 34.1108 34.5416 34.4421 34.1661L36.7555 31.5214L36.358 31.1791L29.8815 38.2133L29.4839 37.8599L30.4225 36.7722C30.5164 36.6673 30.5716 36.4961 30.5109 36.3746L29.8815 34.9833L32.8354 28.1203C33.0783 27.5516 33.636 27.1816 34.2544 27.1816H36.3083L37.2856 26.1326C38.1524 25.2712 38.5223 25.067 39.4113 25.0725H41.029L42.3983 26.1215C42.691 26.3424 42.967 26.3148 43.4087 26.2099L44.6179 25.8068L43.6461 24.9013C43.1879 24.4983 43.0388 24.57 42.6965 24.57L40.5818 24.559H38.7377L39.6542 23.5541L41.3382 23.3498C41.675 23.3001 41.8683 23.0793 42.0836 22.7535L42.8179 21.5002H41.4928C41.0787 21.4781 40.8413 21.5388 40.6149 21.7762L37.7218 24.94C37.4678 25.205 36.9709 25.2823 36.6009 25.2768L32.747 25.2602L31.5765 26.5025L31.19 26.1712L32.1231 25.089C32.2943 24.9068 32.3716 24.6529 32.3219 24.4099L31.974 20.9977C31.974 20.9977 30.7814 20.3131 30.7428 19.6064C30.6655 19.0597 30.8808 18.5076 31.317 18.1598L31.9023 17.696C32.2777 17.4475 32.4047 17.2543 32.4434 16.5586L32.5151 15.4874L30.9195 16.1666C30.6931 16.277 30.4336 16.6359 30.4281 16.8899L30.4115 18.2205L29.8925 19.126L29.2575 18.3861V17.7733L29.5612 16.5365C29.6496 16.15 29.4011 15.8132 29.1361 15.6034L28.0208 14.7917L27.5404 15.8795C27.4631 16.1721 27.5183 16.4978 27.695 16.7408L28.6336 17.823L28.6115 23.2891L25.9061 21.6824C25.5141 21.4394 25.227 21.0695 25.1662 20.6112V19.5622L25.1773 17.8727C25.1773 17.2487 25.2049 17.1991 24.835 16.8512L24.189 16.3432L23.6423 17.2984C23.4988 17.5524 23.4215 17.8561 23.5816 18.1322L24.6196 19.5843L24.3822 20.6664L21.9086 18.3917C21.6988 18.1818 21.3841 18.1045 21.0915 18.1929L19.8878 18.6843L20.3737 19.4849C20.6056 19.8659 20.7381 19.8879 21.1081 19.9818L23.035 20.1971L26.795 25.1553C27.2975 25.7626 27.4189 26.4915 27.0821 27.154L26.1435 29.081L25.8454 29.6441L20.0645 26.0553C19.6394 25.7902 19.5455 25.724 19.1038 25.7461L18.11 25.8344L18.502 26.8503C18.6676 27.2092 19.032 27.5847 19.4296 27.5792L21.3289 27.5902L22.7258 28.4294V28.6669L20.6443 28.6613H18.8277C18.4412 28.6613 18.0934 28.8877 17.9388 29.2411L17.2762 30.7318L18.5075 30.776C18.756 30.7871 18.9989 30.6987 19.1866 30.5331L20.6663 29.2245L21.3676 29.2135C21.8645 29.2135 22.1129 29.1693 22.3614 29.5668L23.6589 31.4165C24.1558 32.1508 24.2663 32.4766 24.1006 32.9459L23.3442 34.6078L21.9639 37.3574L21.8479 44.8554L19.9983 46.8597V47.4946H34.6574L35.2482 46.8762L33.0838 42.0892L34.4918 37.5507C34.6519 37.0483 35.1212 36.7059 35.6457 36.7114L38.9972 36.7225L42.6302 32.7637C43.0388 32.3054 43.0554 32.2447 43.0443 31.8748H43.0554Z" fill="white"/>
<path id="Vector_48" d="M15.5149 31.179L12.9751 32.4986C12.6825 32.6532 12.4948 32.9513 12.4892 33.2826L12.4672 34.7899L14.4162 34.1439C14.6536 34.0666 14.8524 33.8844 14.9518 33.658L15.918 31.4716L15.5094 31.179H15.5149Z" fill="white"/>
<path id="Vector_49" d="M14.1732 35.9716L13.6431 36.0158L12.3401 39.4776C12.2241 39.7813 12.2573 40.1236 12.4395 40.3942L13.0855 41.8905L14.5045 39.9746C14.786 39.693 14.8744 39.2733 14.7308 38.9034L14.1677 35.9661L14.1732 35.9716Z" fill="white"/>
<path id="Vector_50" d="M17.232 32.2668L15.4652 34.6354C15.2443 34.8894 15.167 35.2428 15.2609 35.5685L15.5866 36.7004L17.2817 35.6348C17.5743 35.4526 17.751 35.1268 17.751 34.779L17.7013 32.3054L17.232 32.2612V32.2668Z" fill="white"/>
<path id="Vector_51" d="M49.438 42.4701L49.0294 42.6689L49.3717 45.7553C49.4049 46.0314 49.5595 46.2688 49.8079 46.4068L51.7459 47.489L52.0993 45.5069C52.149 45.2197 52.0551 44.9326 51.8453 44.7339L49.438 42.4646V42.4701Z" fill="white"/>
<path id="Vector_52" d="M59.669 29.0533L55.7709 28.9595L55.6218 29.3957L58.7303 31.4165C59.0782 31.676 59.5585 31.676 59.9009 31.4109L61.3971 30.4558L60.3426 29.3515C60.1659 29.1638 59.9285 29.0589 59.669 29.0533Z" fill="white"/>
<path id="Vector_53" d="M59.2052 17.9887L56.8311 20.4236L57.0298 20.8653L60.5248 20.4677C61.0162 20.4125 61.3917 19.9763 61.3917 19.4629V17.9721L60.061 17.7181C59.7518 17.6574 59.4316 17.7623 59.2052 17.9942V17.9887Z" fill="white"/>
<path id="Vector_54" d="M58.5427 25.7239C58.5096 25.7404 58.4765 25.757 58.4378 25.768L55.4342 27.0987L55.5005 27.5404L59.2936 27.96C59.3709 27.9711 59.4372 27.9766 59.5034 27.9876C59.9065 28.0484 60.1273 28.0815 60.7678 27.4079L61.3972 26.795L60.2433 26.0055C59.2715 25.3926 59.0728 25.4809 58.5427 25.7184V25.7239Z" fill="white"/>
<path id="Vector_55" d="M59.4096 13.4555L57.3501 15.2444L57.4826 15.675L59.1942 15.8849C59.2826 15.8849 59.3764 15.8959 59.4703 15.9069C60.0059 15.9511 60.558 15.9953 60.8782 15.6364C60.9555 15.5536 61.0107 15.4431 61.0494 15.3051L61.3917 13.9358L60.4862 13.3947C60.1439 13.1904 59.7187 13.218 59.404 13.461L59.4096 13.4555Z" fill="white"/>
<path id="Vector_56" d="M60.9776 44.8223L57.3225 42.4978L56.9691 42.7683L58.2501 46.3351C58.3439 46.6443 58.5979 46.8817 58.9126 46.959L61.3972 47.5001L61.4083 45.4904C61.3751 45.2143 61.2205 44.9714 60.9831 44.8223H60.9776Z" fill="white"/>
<path id="Vector_57" d="M56.0967 45.137L52.8778 42.5144L52.4968 42.8015L53.8054 46.6554C53.9379 46.9646 54.2305 47.1855 54.5618 47.2296L56.5495 47.4946L56.4501 45.8272C56.4335 45.5567 56.3065 45.3082 56.0967 45.137Z" fill="white"/>
<path id="Vector_58" d="M60.293 40.0793L56.6213 38.9309L56.3673 39.3229L58.9734 42.2768C59.1777 42.5087 59.4869 42.6302 59.8016 42.5971L61.4028 42.4259L60.939 40.7474C60.8506 40.4327 60.6132 40.1842 60.2985 40.0849L60.293 40.0793Z" fill="white"/>
<path id="Vector_59" d="M59.7629 32.4656L56.8532 32.4821L56.682 32.9073L59.0617 34.8839C59.2549 35.044 59.4979 35.1213 59.7463 35.0993L61.3972 34.6852L60.3923 32.7803C60.2322 32.6036 60.0058 32.4932 59.7629 32.4711V32.4656Z" fill="white"/>
<path id="Vector_60" d="M60.7622 37.269C60.6076 36.8383 60.5524 36.6892 60.2432 36.5567L56.2347 35.7727L56.0249 36.1813L58.6475 38.5334C58.7856 38.6659 58.9623 38.7542 59.1555 38.7874L61.4027 38.953L60.834 37.4457C60.8119 37.3794 60.7898 37.3187 60.7677 37.2635L60.7622 37.269Z" fill="white"/>
<path id="Vector_61" d="M14.0739 10.7888L17.0885 12.3348L17.3812 11.998L15.6364 8.86189C15.4376 8.55822 15.272 8.54165 14.7806 8.48644C14.7199 8.48092 14.6536 8.46988 14.5818 8.46436L13.0414 8.3208L13.6211 10.3471C13.715 10.5404 13.8806 10.7005 14.0794 10.7944L14.0739 10.7888Z" fill="white"/>
<path id="Vector_62" d="M16.1167 16.0892L14.5818 16.6303L15.664 17.9941C15.8627 18.2425 16.1719 18.3806 16.4866 18.3585L18.9381 18.1818L19.0651 17.7401L17.0057 16.2217C16.7462 16.034 16.4149 15.9843 16.1112 16.0892H16.1167Z" fill="white"/>
<path id="Vector_63" d="M7.93958 42.5639L8.02792 44.1651L10.3358 43.0057C10.6009 42.8731 10.7941 42.6247 10.8604 42.3376L11.4015 39.9744L10.9487 39.6487L8.32055 41.7302C8.06657 41.9345 7.92301 42.2437 7.9451 42.5695L7.93958 42.5639Z" fill="white"/>
<path id="Vector_64" d="M18.8001 23.3885L16.5584 21.9474C16.2934 21.7983 15.9732 21.8039 15.7081 21.964L14.2726 22.8198L15.5204 23.8247C15.7026 23.9737 15.929 24.04 16.1609 24.0069L18.7614 23.7695L18.8001 23.383V23.3885Z" fill="white"/>
<path id="Vector_65" d="M19.1811 19.9928L16.4425 19.0044C16.1222 18.8664 15.94 18.9327 15.4707 19.1204L14.4603 19.5952L15.3161 20.5725C15.5204 20.8762 15.8904 21.0363 16.2548 20.9866L19.1203 20.451L19.1811 19.9872V19.9928Z" fill="white"/>
<path id="Vector_66" d="M20.8485 23.9075L19.6614 23.9185L19.9871 24.8792C20.0589 25.0946 20.1804 25.1884 20.4233 25.3596L22.1625 26.4528L22.3724 26.2043L21.5828 24.3492C21.4392 24.0786 21.1577 23.9075 20.854 23.9075H20.8485Z" fill="white"/>
<path id="Vector_67" d="M17.7676 10.5733L19.5951 12.5444L19.9706 12.3125L19.5233 9.10464C19.4295 8.65741 19.0375 8.33166 18.5902 8.32613L17.486 8.30957L17.497 9.90524C17.497 10.1537 17.5964 10.3911 17.7676 10.5788V10.5733Z" fill="white"/>
<path id="Vector_68" d="M13.599 28.5565L12.6107 29.981L14.1898 30.5055C14.5266 30.6159 14.8966 30.5442 15.1671 30.3068L17.2928 28.4405L17.1106 27.916L14.3389 28.1258C14.0407 28.1479 13.7647 28.308 13.5935 28.551L13.599 28.5565Z" fill="white"/>
<path id="Vector_69" d="M22.6595 21.1853L20.843 20.8596C20.451 20.7878 20.0589 20.9645 19.8491 21.3013L19.2252 22.3172L20.5393 22.6651C20.7988 22.7313 21.0749 22.6871 21.3012 22.5436L22.8307 21.5718L22.654 21.1853H22.6595Z" fill="white"/>
<path id="Vector_70" d="M17.4861 25.0614L14.9131 24.7632C14.6039 24.7246 14.2892 24.8515 14.0849 25.089L12.9917 26.3478L14.5874 27.0601C14.891 27.1926 15.2389 27.1595 15.5094 26.9717L17.475 25.6135L17.4861 25.0558V25.0614Z" fill="white"/>
<path id="Vector_71" d="M14.7806 12.6328L13.3727 12.9916L13.6267 13.991C13.715 14.3444 14.0021 14.6315 14.3555 14.7198L17.4806 15.3769L17.6793 15.0014L15.7082 12.9143C15.4653 12.6548 15.1064 12.5499 14.7751 12.6328H14.7806Z" fill="white"/>
<path id="Vector_72" d="M9.9494 30.7042L12.307 27.8276L11.926 27.5073L9.25923 28.1699C8.96108 28.2472 8.71814 28.468 8.62428 28.7662L7.92859 30.7207L9.01629 30.9968C9.35309 31.0907 9.7175 30.9747 9.93836 30.7042H9.9494Z" fill="white"/>
<path id="Vector_73" d="M10.5015 34.4256L11.672 31.7754L11.2634 31.3999L8.58005 32.9183C8.2819 33.0894 8.08865 33.3986 8.07209 33.7409L7.93958 35.4912L9.84996 34.9888C10.1426 34.9115 10.38 34.7017 10.5015 34.4256Z" fill="white"/>
<path id="Vector_74" d="M10.4076 26.7566L13.2125 24.0566L12.9198 23.5818L9.6457 24.2223C9.39171 24.272 9.16534 24.421 9.01626 24.6364L7.93408 26.1989L9.2316 26.9112C9.61257 27.121 10.0929 27.0602 10.4076 26.7566Z" fill="white"/>
<path id="Vector_75" d="M10.2861 38.8978L11.9591 35.9991L11.5505 35.6182L8.7733 36.7721C8.44754 36.9046 8.22116 37.2028 8.16595 37.5506L7.93958 39.0966L9.20948 39.3727C9.63463 39.4665 10.0708 39.2733 10.2917 38.8978H10.2861Z" fill="white"/>
<path id="Vector_76" d="M9.13231 11.1421L12.5666 11.8047L12.7598 11.4071L10.3139 8.59124C10.0212 8.29309 9.55745 8.22131 9.19304 8.4256L7.9397 9.11577L8.3538 10.474C8.46422 10.8329 8.7679 11.0924 9.13231 11.1421Z" fill="white"/>
<path id="Vector_77" d="M18.7891 13.7869L18.9768 15.5703C19.0154 15.9457 19.2749 16.2659 19.6283 16.3819L22.0963 17.4641L22.3669 17.1107L20.324 14.2065C20.1363 13.9249 19.8271 13.7593 19.4903 13.7648L18.7891 13.7813V13.7869Z" fill="white"/>
<path id="Vector_78" d="M9.67882 15.8241L13.3284 15.9014L13.4775 15.4707L10.6837 13.3395C10.3635 13.0966 9.92728 13.0855 9.59048 13.3119L7.93408 14.4272L9.03283 15.5425C9.20399 15.7137 9.43036 15.8131 9.6733 15.8186L9.67882 15.8241Z" fill="white"/>
<path id="Vector_79" d="M10.9542 19.6837L14.0296 18.48V18.0383L10.4463 16.7905C10.126 16.6801 9.76162 16.7463 9.50211 16.9672L7.93958 18.2923L10.0984 19.6119C10.3524 19.7665 10.6726 19.7996 10.9542 19.6892V19.6837Z" fill="white"/>
<path id="Vector_80" d="M10.496 22.8363L13.2677 21.3566L13.218 20.799L9.65674 20.5174C9.29785 20.4898 8.95001 20.6554 8.74572 20.9536L7.93408 22.1517L9.62913 22.875C9.9052 22.9909 10.2254 22.9799 10.4905 22.8363H10.496Z" fill="white"/>
</g>
<path id="Vector_81" d="M69.3369 55.5115H0V0.298096H69.3369V55.5115ZM0.78403 54.7274H68.5529V1.08213H0.78403V54.7274Z" fill="white"/>
<g id="Group_4">
<path id="Vector_82" d="M210.457 18.4964H210.777V9.14329H209.562V15.7744L203.279 9.02734H202.992V18.3805H204.179V11.7494L210.462 18.4964H210.457ZM198.906 18.4964H199.226V9.14329H198.012V15.7744L191.701 9.02734H191.414V18.3805H192.601V11.7494L198.912 18.4964H198.906ZM198.095 32.885H202.931V31.8415H199.315V28.4845H202.699V27.441H199.315V24.6638H202.931V23.6202H198.095V32.885ZM183.767 14.6425L185.158 11.3739L186.516 14.6425H183.767ZM180.813 18.3805H182.027L183.303 15.6585H187.008L188.25 18.3805H189.492L185.324 9.02734H185.003L180.807 18.3805H180.813ZM209.502 46.8043H214.338V45.7608H210.722V42.4038H214.106V41.3603H210.722V38.6107H214.338V37.5671H209.502V46.8043ZM191.784 32.885H192.998V24.6638H195.836V23.6202H188.973V24.6638H191.784V32.885ZM168.975 18.3805H170.162V11.7494L173.839 15.6309L177.517 11.7494V18.3805H178.704V9.02734H178.444L173.839 13.9469L169.235 9.02734H168.975V18.3805ZM202.986 47.0362C204.229 47.0362 205.333 46.6332 206.112 45.9099V44.5516L206.023 44.524C205.443 45.3633 204.433 45.9982 202.981 45.9982C200.927 45.9982 199.364 44.2921 199.364 42.0891C199.364 39.8861 200.927 38.2959 202.981 38.2959C204.284 38.2959 205.383 38.9033 206.023 39.7425L206.112 39.7149V38.3843C205.328 37.661 204.29 37.2855 202.986 37.2855C200.264 37.2855 198.15 39.3671 198.15 42.0891C198.15 44.8111 200.264 47.0417 202.986 47.0417V47.0362ZM182.696 33.001C184.722 33.001 186.721 31.9298 186.721 28.8876V23.6202H185.506V29.263C185.506 31.0299 184.148 31.9574 182.696 31.9574C181.243 31.9574 179.885 31.0299 179.885 29.263V23.6202H178.671V28.8876C178.671 31.9298 180.669 33.001 182.696 33.001ZM194.854 46.9203H195.141V37.5671H193.954V44.1983L187.643 37.4843H187.356V46.8043H188.543V40.1732L194.854 46.9203ZM159.075 18.3805H165.966V17.337H161.129L166.457 9.14329H159.683V10.1868H164.459L159.075 18.3805ZM172.42 32.885H173.607V24.6638H176.445V23.6202H169.582V24.6638H172.42V32.885ZM155.453 18.3805H156.64V9.14329H155.453V18.3805ZM178.731 46.8043H183.568V45.7608H179.918V42.4038H183.336V41.3603H179.918V38.6107H183.568V37.5671H178.731V46.8043ZM165.585 32.885H166.772V23.6202H165.585V32.885ZM147.409 18.3805H152.212V17.337H148.563V14.0076H151.947V12.9364H148.563V10.1868H152.212V9.14329H147.409V18.3805ZM173.723 46.8043H174.91V37.5671H173.723V46.8043ZM158.694 32.885H159.881V24.6638H162.747V23.6202H155.856V24.6638H158.694V32.885ZM135.886 18.4964H136.206L138.116 14.9352L140.054 18.4964H140.341L145.813 9.14329H144.394L140.17 16.5253L138.724 13.8033L141.269 9.14329H139.938L138.116 12.6162L136.322 9.14329H134.964L137.509 13.8033L136.062 16.5253L131.839 9.14329H130.42L135.891 18.4964H135.886ZM167.181 47.0362C168.423 47.0362 169.555 46.6332 170.333 45.9099V44.5516L170.217 44.524C169.665 45.3633 168.627 45.9982 167.175 45.9982C165.149 45.9982 163.559 44.2921 163.559 42.0891C163.559 39.8861 165.149 38.2959 167.175 38.2959C168.478 38.2959 169.604 38.9033 170.217 39.7425L170.333 39.7149V38.3843C169.549 37.661 168.478 37.2855 167.181 37.2855C164.459 37.2855 162.377 39.3671 162.377 42.0891C162.377 44.8111 164.459 47.0417 167.181 47.0417V47.0362ZM150.937 33.0286C152.527 33.0286 153.979 32.1286 153.979 30.3949C153.979 28.86 153.228 28.0483 151.229 27.2422C150.214 26.806 149.783 26.1711 149.783 25.5637C149.783 24.9564 150.274 24.4043 151.025 24.4043C151.544 24.4043 152.152 24.6362 152.615 25.4754L153.631 24.8957C152.963 23.7969 152.069 23.3607 151.141 23.3607C149.667 23.3607 148.535 24.1448 148.535 25.6466C148.535 26.5741 149.142 27.5017 150.848 28.2526C152.383 28.9483 152.731 29.4673 152.731 30.3949C152.731 31.3225 152.008 31.9851 150.964 31.9851C150.241 31.9851 149.374 31.5213 148.822 30.3949L147.867 30.8863C148.358 32.2777 149.606 33.0286 150.937 33.0286ZM157.165 46.981C158.755 46.981 160.174 46.081 160.174 44.3749C160.174 42.8124 159.451 42.0008 157.452 41.1891C156.436 40.7861 155.978 40.1456 155.978 39.5106C155.978 38.8757 156.497 38.4119 157.253 38.4119C157.772 38.4119 158.38 38.6162 158.843 39.4278L159.859 38.8481C159.191 37.7769 158.297 37.3408 157.369 37.3408C155.895 37.3408 154.791 38.1248 154.791 39.599C154.791 40.5542 155.37 41.4818 157.077 42.2327C158.611 42.9007 158.987 43.4197 158.987 44.3749C158.987 45.3301 158.264 45.9375 157.193 45.9375C156.469 45.9375 155.63 45.4737 155.05 44.3749L154.095 44.8663C154.586 46.2246 155.834 46.981 157.165 46.981ZM144.659 33.001H144.946V23.6202H143.759V30.2514L137.448 23.5043H137.161V32.885H138.348V26.2539L144.659 33.001ZM132.181 32.885H133.368V23.6202H132.181V32.885ZM143.963 46.8043H145.15V42.4038H148.392V41.3603H145.15V38.6107H148.767V37.5671H143.963V46.8043ZM136.521 45.9982C134.378 45.9982 132.672 44.2921 132.672 42.0891C132.672 39.8861 134.378 38.2959 136.521 38.2959C138.663 38.2959 140.286 39.9744 140.286 42.0891C140.286 44.2038 138.635 45.9982 136.521 45.9982ZM136.521 47.0362C139.331 47.0362 141.528 44.9215 141.528 42.0836C141.528 39.2456 139.331 37.28 136.521 37.28C133.71 37.28 131.485 39.3616 131.485 42.0836C131.485 44.8056 133.655 47.0362 136.521 47.0362Z" fill="white"/>
<path id="Vector_83" d="M244.976 55.5115H122.099V0.298096H244.976V55.5115ZM122.883 54.7274H244.192V1.08213H122.883V54.7274Z" fill="white"/>
</g>
<g id="Group_5">
<path id="Vector_84" d="M78.574 26.7454L78.3311 33.8292L80.2857 35.4801H80.5893L79.3084 26.9662C79.2752 26.7233 79.3415 26.3865 79.6728 25.9889L81.1083 24.3381L78.4194 22.0798H77.8673L76.7686 23.3332L79.0599 25.2877C79.3636 25.5307 79.3967 25.8399 79.1206 26.1435L78.5685 26.7564L78.574 26.7454ZM100.709 19.4462H112.856L114.198 17.0665V10.8991C114.198 9.89425 113.375 9.15991 112.182 9.15991H108.185L106.992 10.5016C106.595 10.9599 105.894 10.9267 105.468 10.5623L103.056 8.51944H102.504L101.405 9.77278L104.397 12.2739C104.795 12.6107 104.762 13.0359 104.397 13.4666L103.602 14.3831L103.967 14.6868L106.744 11.4844C107.02 11.1476 107.478 10.9047 108.146 10.9047H111.26C111.995 10.9047 112.359 11.1807 112.481 11.8212L113.243 16.0947C113.336 16.5806 113.276 16.9505 113.088 17.1603C112.69 17.6793 111.774 17.7125 110.736 17.7125H101.366L100.693 19.0873V19.4517L100.709 19.4462ZM111.879 33.3378H112.243L113.955 32.5428L112.795 26.9552C112.735 26.7122 112.856 26.403 113.22 26.011L114.656 24.3601L111.939 22.0688H111.387L110.289 23.3221L112.608 25.2767C112.911 25.5196 112.911 25.8288 112.668 26.1325L112.149 26.7454L111.873 33.3378H111.879ZM106.352 27.811L109.433 24.2994L106.838 22.0688H106.286L105.154 23.3829L107.108 25.0006C107.473 25.3043 107.473 25.7957 107.108 26.2208L105.976 27.5018L106.341 27.8055L106.352 27.811ZM86.7898 19.4462H98.7545L99.914 17.0665V10.474C99.914 9.67892 99.2128 9.15991 98.2962 9.15991H90.0529C89.7492 9.15991 89.4732 8.97771 89.2302 8.76238L88.9541 8.51944H88.4351L87.3364 9.77278L88.7388 10.9047H97.4073C97.9263 10.9047 98.1417 11.0869 98.2024 11.5175L98.9036 16.0671C98.9643 16.5254 98.8705 16.8622 98.6883 17.1051C98.2907 17.591 97.4073 17.718 96.43 17.718H87.4855L86.7843 19.1535V19.4572L86.7898 19.4462ZM94.0227 33.1225H102.967L103.669 31.687C103.851 31.3226 103.729 30.9858 103.332 30.6821L101.35 29.1582C100.985 28.8821 100.864 28.3024 101.167 27.938L104.342 24.3049L101.686 22.0743H101.134L100.035 23.3553L102.051 25.0338C102.415 25.3374 102.415 25.8288 102.051 26.254L100.251 28.33L98.0202 26.6184C97.7165 26.3754 97.7441 26.0055 97.9263 25.7957L99.2073 24.3325L96.5184 22.0743H95.9662L94.8675 23.3277L97.1589 25.2215C97.4625 25.4975 97.4349 25.8343 97.192 26.138L96.673 26.8116L101.25 31.0244C101.405 31.1459 101.372 31.4219 101.035 31.4219H94.6853L94.0117 32.7968V33.1335L94.0227 33.1225ZM83.6426 19.783H84.007L85.7186 18.9879L84.5592 13.4003C84.4984 13.0635 84.7414 12.7267 84.9843 12.4561L86.4199 10.8053L83.7034 8.51392H83.1512L82.0525 9.76726L84.3714 11.7218C84.6751 11.9979 84.7082 12.2739 84.4322 12.5776L83.9132 13.1905L83.6371 19.783H83.6426ZM80.2857 21.7375H80.6225L79.3415 13.4058C79.3084 13.1629 79.3746 12.8537 79.7059 12.4617L81.1415 10.8108L78.425 8.51944H77.8728L76.7741 9.77278L79.093 11.7273C79.3967 11.9703 79.4298 12.2795 79.1538 12.5831L78.6016 13.196L78.3587 20.0922L80.2801 21.743L80.2857 21.7375ZM81.3513 33.1225H92.0682L93.2277 30.7704V24.454C93.2277 23.4767 92.405 22.6541 91.2124 22.6541H88.9818L87.7284 24.0896C87.3309 24.5147 86.6904 24.5479 86.2321 24.1503L83.7917 22.0743H83.0905L82.0525 23.2669L85.045 25.8012C85.4426 26.138 85.5033 26.5963 85.1389 27.0214L84.3438 27.938L84.7082 28.2416L87.4855 25.0061C87.7284 24.7025 88.2198 24.3933 88.921 24.3933H90.5388C91.2124 24.3933 91.4553 24.7577 91.5768 25.4313L92.3111 29.7655C92.405 30.2238 92.3111 30.5606 92.1897 30.7704C91.7921 31.3502 90.8756 31.4109 90.086 31.4109H82.0249L81.3513 32.7857V33.1225ZM93.0455 46.8265H104.281L105.441 44.4744V38.158C105.441 37.1807 104.618 36.358 103.426 36.358H101.504L100.251 37.7936C99.8533 38.2187 99.2128 38.2518 98.7545 37.8543L96.3417 35.8114H95.7896L94.6908 37.0647L97.5619 39.4776C97.9594 39.8144 98.0202 40.3002 97.6558 40.7309L96.8607 41.6475L97.2251 41.9511L99.9747 38.7764C100.218 38.4727 100.737 38.1635 101.438 38.1635H102.691C103.332 38.1635 103.669 38.4064 103.757 38.9862L104.519 43.475C104.613 43.9609 104.519 44.2977 104.337 44.5406C103.911 45.0265 103.023 45.0928 101.985 45.0928H93.7135L93.0399 46.4676V46.832L93.0455 46.8265ZM89.6885 47.1025H90.086L91.7976 46.3075L90.7596 41.3935C90.5774 40.5377 90.7265 40.0794 91.643 39.2567C92.0406 38.8592 92.4988 38.4948 93.3823 37.8543V37.2138C93.3823 36.601 93.1393 36.358 92.5265 36.358H84.9567C84.5592 36.358 84.3438 36.2365 84.0402 36.0212L83.7641 35.8059H83.2451L82.1463 37.0592L83.4604 38.158H90.7872C91.2455 38.158 91.4884 38.4009 91.4884 38.6438C91.4884 38.7984 91.4277 38.9199 91.3062 39.0414L89.9038 40.4438L89.6885 47.097V47.1025ZM76.9894 47.2847C80.0703 46.4897 82.8475 45.3302 84.6199 42.9505C84.9236 42.2493 85.1996 41.2113 85.415 39.8365L85.1113 39.5604C84.7138 40.7806 83.6757 42.3376 82.8199 42.7959C82.5439 42.9505 82.2071 42.9781 81.9641 42.702L80.0427 40.626C79.8274 40.4107 79.739 40.2616 79.739 40.0739C79.739 39.8861 79.8329 39.7095 80.0151 39.4941L81.1746 38.1524L78.425 35.8004H77.8728L76.7741 37.0537L79.093 39.0083C79.3967 39.2512 79.4298 39.5604 79.1538 39.8641L78.6016 40.4769L80.7991 43.9885C80.0648 44.4136 78.7231 44.905 77.7182 45.0872L76.7741 47.0418L76.9894 47.2847ZM106.264 47.0749C110.14 46.0976 113.099 44.3253 114.198 42.1885V37.3353C114.198 36.8163 113.646 36.358 112.944 36.358H109.096C108.301 36.358 108.03 36.2034 107.964 35.8059L107.688 34.3703C107.627 34.1274 107.749 33.8182 108.113 33.4262L109.549 31.7753L107.169 29.76H106.65L105.518 31.041L107.5 32.6918C107.655 32.8133 107.743 32.9955 107.743 33.1501C107.743 33.2716 107.683 33.4262 107.561 33.5476L107.042 34.1605V37.6997C107.346 38.0365 107.655 38.158 108.235 38.158H112.05C112.387 38.158 112.602 38.3126 112.663 38.6162L113.182 41.3327C113.276 41.791 113.149 42.0063 112.939 42.2161C111.685 43.4364 109.582 44.1707 106.987 44.905L106.043 46.8596L106.258 47.0749H106.264Z" fill="white"/>
<path id="Vector_85" d="M122.883 55.5115H68.5529V0.298096H122.883V55.5115ZM69.3369 54.7274H122.099V1.08213H69.3369V54.7274Z" fill="white"/>
</g>
</g>
</g>
</g>
</svg>
